# xmcd
#
# Track frame offsets:
# 150
# 4157
# 18220
# 37307
# 46997
# 60390
# 77430
# 105165
# 114165
# 127425
#
# Disc length: 1900 seconds
#
#
# Revision: 0
# Processed by: cddbd v1.5.1PL2 Copyright (c) Steve Scherf et al.
# Submitted via: FreeRIP 2.945 
#
DISCID=73076a0a
DTITLE=Middelaldermusik - Dansk
DYEAR=2000
DGENRE=Folklore
TTITLE0=Mont D'arret
TTITLE1=Held and lykke
TTITLE2=Det lider mod kvælden
TTITLE3=An Alarc'h
TTITLE4=Hr Tidemand
TTITLE5=Drømte mig en drøm i nat
TTITLE6=Tre Skalke
TTITLE7=Vive Henri IV
TTITLE8=Drenge og piger
TTITLE9=Et folk et menneske
EXTD=
EXTT0=
EXTT1=
EXTT2=
EXTT3=
EXTT4=
EXTT5=
EXTT6=
EXTT7=
EXTT8=
EXTT9=
PLAYORDER=
